<?xml version="1.0" encoding="UTF-8" standalone="no"?>
<!-- Created with Inkscape (http://www.inkscape.org/) -->

<svg
   width="137.97203mm"
   height="104.31563mm"
   viewBox="0 0 137.97203 104.31563"
   version="1.1"
   id="svg5"
   inkscape:version="1.1.1 (3bf5ae0d25, 2021-09-20)"
   sodipodi:docname="austria.svg"
   xmlns:inkscape="http://www.inkscape.org/namespaces/inkscape"
   xmlns:sodipodi="http://sodipodi.sourceforge.net/DTD/sodipodi-0.dtd"
   xmlns="http://www.w3.org/2000/svg"
   xmlns:svg="http://www.w3.org/2000/svg">
  <sodipodi:namedview
     id="namedview7"
     pagecolor="#505050"
     bordercolor="#eeeeee"
     borderopacity="1"
     inkscape:pageshadow="0"
     inkscape:pageopacity="0"
     inkscape:pagecheckerboard="true"
     inkscape:document-units="mm"
     showgrid="false"
     inkscape:zoom="2.0762433"
     inkscape:cx="279.59151"
     inkscape:cy="227.81531"
     inkscape:window-width="1920"
     inkscape:window-height="984"
     inkscape:window-x="-9"
     inkscape:window-y="-9"
     inkscape:window-maximized="1"
     inkscape:current-layer="layer1"
     fit-margin-top="0"
     fit-margin-left="0"
     fit-margin-right="0"
     fit-margin-bottom="0" />
  <defs
     id="defs2" />
  <g
     inkscape:label="Layer 1"
     inkscape:groupmode="layer"
     id="layer1"
     transform="translate(-28.22514,-19.038505)">
    <path
       style="fill:#d0d0d0;fill-opacity:1;stroke-width:0.681597"
       d="m 68.435149,106.56353 -4.723968,-0.85333 -1.137484,-1.40473 -1.137477,-1.40473 -2.999322,0.38975 -2.999314,0.38976 -0.572924,0.97211 -0.572924,0.97211 -1.252626,-1.13361 -1.252619,-1.13361 -1.241646,0.38668 -1.241638,0.38667 -0.731313,-0.49564 c -0.402225,-0.2726 -0.910608,-0.98353 -1.129735,-1.57984 l -0.39842,-1.08421 0.618536,-0.96058 0.618536,-0.960585 0.670514,1.022385 c 0.368785,0.56232 0.8062,1.32912 0.97204,1.704 l 0.301511,0.6816 1.302683,-1.60862 1.302676,-1.608605 1.407212,0.878815 1.407213,0.87881 1.779017,-1.165655 1.779023,-1.16565 2.402366,-0.0903 2.402371,-0.0903 0.792971,0.79297 c 0.43614,0.43614 1.043226,0.792965 1.349079,0.792965 h 0.556108 l -0.159759,-2.096595 c -0.08787,-1.15314 -0.399457,-2.24475 -0.692421,-2.42582 -0.292971,-0.18107 -0.532669,-0.77119 -0.532669,-1.31138 v -0.98217 h 0.98375 0.983742 l 0.981685,-1.40155 0.981684,-1.40155 2.856997,-0.26151 2.856991,-0.26152 0.971154,-0.80598 c 0.534134,-0.4433 0.971153,-1.20617 0.971153,-1.69529 v -0.88934 l 1.874393,0.24006 c 1.030916,0.13203 2.707013,0.55805 3.724653,0.94671 l 1.85027,0.70667 0.38675,-0.62579 0.386761,-0.62578 1.05548,0.40503 1.05549,0.40502 -0.32362,1.23753 -0.32362,1.23752 0.92862,1.22447 c 0.51074,0.67346 0.93838,1.76123 0.95031,2.41727 l 0.0217,1.19279 h -1.24959 c -0.68728,0 -1.45142,0.20182 -1.69809,0.44849 l -0.44848,0.44848 0.70878,0.85403 0.70878,0.85403 -0.6507,0.40216 -0.65071,0.40216 0.32898,1.25803 0.32899,1.258015 -2.117031,1.78136 -2.11703,1.78137 -2.341246,0.43922 -2.341239,0.43921 -0.789344,0.9511 -0.789338,0.9511 -1.109334,-0.0764 c -0.610139,-0.0421 -3.235127,-0.46042 -5.833308,-0.92975 z"
       id="path1496"
       sodipodi:nodetypes="ccccccccccccsscccsscccccccccsscssscccccccsscsscccccccsscsscccccccccccccccc" />
  </g>
</svg>
