<?xml version="1.0" encoding="UTF-8" standalone="no"?>
<!-- Created with Inkscape (http://www.inkscape.org/) -->

<svg
   width="137.97203mm"
   height="104.31563mm"
   viewBox="0 0 137.97203 104.31563"
   version="1.1"
   id="svg5"
   inkscape:version="1.1.1 (3bf5ae0d25, 2021-09-20)"
   sodipodi:docname="czechoslovakia.svg"
   xmlns:inkscape="http://www.inkscape.org/namespaces/inkscape"
   xmlns:sodipodi="http://sodipodi.sourceforge.net/DTD/sodipodi-0.dtd"
   xmlns="http://www.w3.org/2000/svg"
   xmlns:svg="http://www.w3.org/2000/svg">
  <sodipodi:namedview
     id="namedview7"
     pagecolor="#505050"
     bordercolor="#eeeeee"
     borderopacity="1"
     inkscape:pageshadow="0"
     inkscape:pageopacity="0"
     inkscape:pagecheckerboard="true"
     inkscape:document-units="mm"
     showgrid="false"
     inkscape:zoom="2.0762433"
     inkscape:cx="279.59151"
     inkscape:cy="227.81531"
     inkscape:window-width="1920"
     inkscape:window-height="984"
     inkscape:window-x="-9"
     inkscape:window-y="-9"
     inkscape:window-maximized="1"
     inkscape:current-layer="layer1"
     fit-margin-top="0"
     fit-margin-left="0"
     fit-margin-right="0"
     fit-margin-bottom="0" />
  <defs
     id="defs2" />
  <g
     inkscape:label="Layer 1"
     inkscape:groupmode="layer"
     id="layer1"
     transform="translate(-28.22514,-19.038505)">
    <path
       style="fill:#d0d0d0;fill-opacity:1;stroke-width:0.681597"
       d="m 90.369449,92.865345 -2.55599,-1.67382 v -2.03487 -2.03487 l -1.02239,-0.0852 c -2.816961,-0.23474 -5.021841,-0.50898 -7.497576,-0.93255 l -2.726389,-0.46644 -0.681598,1.5941 -0.681597,1.59409 -1.550185,0.21998 -1.550184,0.21998 -3.561796,-2.90075 c -4.51332,-3.67567 -5.26579,-4.60072 -5.26579,-6.47345 v -1.51692 l -0.779339,-0.25978 -0.779338,-0.25978 0.825489,-1.54243 0.825483,-1.54243 0.799766,0.26658 c 0.439869,0.14663 1.175251,-0.0648 1.634191,-0.46977 2.267463,-2.00101 2.943342,-2.41862 4.578617,-2.82904 0.972824,-0.24417 1.946547,-0.73157 2.16382,-1.08313 l 0.39504,-0.63919 0.889498,0.73823 0.889505,0.73822 1.094605,-1.09461 1.094611,-1.09461 v 0.64759 c 0,0.80954 4.107763,2.5679 5.350776,2.29044 l 0.9204,-0.20544 -0.43229,0.69946 -0.43228,0.69946 0.86864,1.39091 c 1.04494,1.67322 2.115501,1.76358 3.577181,0.3019 l 1.08903,-1.08903 1.85644,1.24851 c 1.02105,0.68668 2.533572,1.31073 3.361172,1.38677 l 1.50473,0.13827 2.07757,2.25824 2.07756,2.25825 0.89542,-1.15477 0.895439,-1.15478 0.95513,1.32518 0.95513,1.32517 h 1.23411 1.23412 l 0.40583,-1.05758 0.40583,-1.05756 1.89348,0.41587 1.89348,0.41588 0.44592,-0.7215 0.44591,-0.7215 h 2.00457 2.00456 v 0.5451 0.54511 l 5.28238,1.28168 5.28238,1.28167 2.04479,1.37797 c 2.43118,1.63835 3.11291,2.52223 2.59354,3.3626 l -0.38371,0.62086 -3.66091,-0.30359 -3.6609,-0.30359 v 0.50807 0.50807 l -2.04479,-0.77183 c -1.12463,-0.4245 -2.04479,-1.03196 -2.04479,-1.34992 v -0.5781 l -1.39591,0.44305 -1.3959,0.44304 -0.83584,-0.69368 -0.83584,-0.69369 -2.93909,0.39421 -2.9391,0.39422 -0.4101,1.09515 c -0.22555,0.60234 -0.88918,1.4661 -1.47474,1.91946 l -1.06463,0.8243 -1.1928,-0.35903 -1.19279,-0.35904 v 1.06833 1.06833 h -1.76781 -1.767799 l -0.34,1.30018 -0.34001,1.30017 -1.47057,0.39451 c -2.39081,0.64138 -3.37694,0.42359 -6.071372,-1.34089 z"
       id="path1496"
       sodipodi:nodetypes="scccsscccccsscccccccsscccccsscccsscsscccccccccccccccccccccsscccccsscccccccsccccccccccss" />
  </g>
</svg>
