<?xml version="1.0" encoding="UTF-8" standalone="no"?>
<!-- Created with Inkscape (http://www.inkscape.org/) -->

<svg
   width="137.97203mm"
   height="104.31563mm"
   viewBox="0 0 137.97203 104.31563"
   version="1.1"
   id="svg5"
   inkscape:version="1.1.1 (3bf5ae0d25, 2021-09-20)"
   sodipodi:docname="germany.svg"
   xmlns:inkscape="http://www.inkscape.org/namespaces/inkscape"
   xmlns:sodipodi="http://sodipodi.sourceforge.net/DTD/sodipodi-0.dtd"
   xmlns="http://www.w3.org/2000/svg"
   xmlns:svg="http://www.w3.org/2000/svg">
  <sodipodi:namedview
     id="namedview7"
     pagecolor="#505050"
     bordercolor="#eeeeee"
     borderopacity="1"
     inkscape:pageshadow="0"
     inkscape:pageopacity="0"
     inkscape:pagecheckerboard="true"
     inkscape:document-units="mm"
     showgrid="false"
     inkscape:zoom="2.0762433"
     inkscape:cx="270.44037"
     inkscape:cy="168.09206"
     inkscape:window-width="1920"
     inkscape:window-height="984"
     inkscape:window-x="-9"
     inkscape:window-y="-9"
     inkscape:window-maximized="1"
     inkscape:current-layer="layer1"
     fit-margin-top="0"
     fit-margin-left="0"
     fit-margin-right="0"
     fit-margin-bottom="0" />
  <defs
     id="defs2" />
  <g
     inkscape:label="Layer 1"
     inkscape:groupmode="layer"
     id="layer1"
     transform="translate(-28.22514,-19.038505)">
    <path
       style="fill:#d0d0d0;fill-opacity:1;stroke-width:0.681597"
       d="m 49.961419,100.02111 -0.658212,-1.073415 -4.147718,-1.14553 -4.147718,-1.14554 -2.214701,1.10484 -2.214701,1.10483 -0.58982,-0.58987 -0.589814,-0.58988 0.685592,-3.06718 c 0.37708,-1.68696 1.128514,-3.74652 1.669859,-4.57681 1.397234,-2.14302 1.249273,-2.64561 -1.060532,-3.60236 l -2.044792,-0.84698 v -1.57812 -1.57812 l -2.215191,-0.21358 -2.215192,-0.21359 0.21471,-1.25565 0.214717,-1.25565 -1.211383,-0.88578 -1.211383,-0.88578 0.92807,-1.11826 0.92807,-1.11826 -0.864374,-2.61909 -0.864375,-2.61908 0.82414,-2.49717 0.82414,-2.49717 -0.826621,-0.99602 -0.826621,-0.99601 0.59466,-0.0807 c 0.327057,-0.0444 0.837117,-0.0403 1.133462,0.009 0.296345,0.0495 1.14841,-0.23633 1.893485,-0.63508 l 1.354674,-0.725 -0.355977,-0.57597 -0.355972,-0.57598 1.018477,-0.39083 1.018484,-0.39083 v -1.00992 -1.00992 l -1.192795,-0.69473 -1.192796,-0.69474 1.051984,-0.0207 1.051985,-0.0207 0.778473,-2.89679 0.778472,-2.89679 -0.584394,-0.59426 -0.584402,-0.59425 0.360456,-0.93934 0.360463,-0.93934 h 1.69488 1.694881 l 0.356482,1.36319 c 0.196069,0.74976 0.495978,1.3632 0.666473,1.3632 0.700955,0 2.25741,-2.01605 2.25741,-2.92399 v -0.97656 l 1.683177,0.32176 c 0.925746,0.17697 2.036818,0.74788 2.469053,1.26868 0.432228,0.5208 1.193743,0.94691 1.692263,0.94691 h 0.906388 l -1.579206,-1.70399 c -0.868567,-0.9372 -1.892619,-1.70399 -2.275684,-1.70399 h -0.696476 l -0.300114,-2.04479 -0.300108,-2.0448 h 0.641935 0.641943 l -1.13105,-1.7262 -1.131043,-1.72619 2.270463,0.23292 c 1.248754,0.12811 2.663519,0.47585 3.143915,0.77275 l 0.873454,0.53982 -0.301866,0.78664 -0.301859,0.78664 0.864361,0.80744 c 0.4754,0.44409 1.027297,0.64451 1.226425,0.44537 0.199136,-0.19913 1.014763,-0.1549 1.812511,0.0983 l 1.450446,0.46036 -0.794245,0.95701 -0.794252,0.95701 1.099165,0.34887 c 0.604536,0.19187 1.551125,0.48948 2.103525,0.66135 l 1.004375,0.31248 0.529219,-0.84315 c 0.291077,-0.46373 1.822558,-1.41312 3.403298,-2.10975 l 2.874078,-1.26661 1.726705,1.13139 c 0.94969,0.62225 1.738993,0.89427 1.754002,0.60447 0.01499,-0.28981 0.484882,0.31656 1.04416,1.34748 l 1.016875,1.87439 h 0.961979 0.96198 l 1.108638,1.5336 1.108632,1.53359 -0.123035,-1.70399 c -0.06768,-0.9372 -0.08908,-2.21539 -0.04758,-2.84042 l 0.07543,-1.13643 2.949026,-1.12625 2.949027,-1.12624 2.899534,-2.65044 c 2.89241,-2.64392 5.261881,-3.87027 6.017651,-3.1145 0.43893,0.43894 -1.89844,5.38253 -2.716891,5.74628 -0.82899,0.36845 -0.58835,1.62501 0.552651,2.8858 l 1.06385,1.17554 -1.971251,2.28612 c -1.08419,1.25736 -2.16673,2.82287 -2.40565,3.47891 l -0.4344,1.19279 h -1.360602 -1.360604 l -0.623976,1.1928 -0.623968,1.1928 0.345747,2.27785 0.345747,2.27784 2.128636,1.26012 c 1.17075,0.69307 2.43535,1.52207 2.81023,1.84222 0.37488,0.32015 1.07843,0.82483 1.56345,1.12149 l 0.881861,0.5394 0.93359,-0.77482 0.9336,-0.77482 1.22829,2.07933 1.2283,2.07934 h 1.1106 1.110582 l 1.19481,1.32025 1.19481,1.32024 -0.4478,0.72455 -0.44779,0.72454 h 0.6489 c 0.35689,0 0.81977,0.44526 1.0286,0.98946 l 0.37969,0.98945 -2.11549,1.05534 c -2.591622,1.29288 -2.587632,1.29282 -2.587632,0.0329 v -1.02239 l -1.1928,-0.009 c -0.65603,-0.005 -1.93464,-0.20779 -2.84135,-0.45036 l -1.64856,-0.44106 0.41273,1.07555 0.41273,1.07555 -0.92295,0.35417 -0.922961,0.35417 -0.50471,-1.14976 c -0.27758,-0.63236 -0.45814,-1.46673 -0.40122,-1.85414 l 0.10348,-0.70438 -3.063168,-0.90444 -3.063167,-0.90445 v -0.60637 c 0,-0.92778 -1.889177,-0.72094 -2.243594,0.24564 l -0.312397,0.85199 -0.903116,-0.85199 c -0.496714,-0.46864 -1.301851,-0.85204 -1.789193,-0.85204 h -0.886077 l -0.01499,0.852 -0.01499,0.852 -5.756868,2.72639 c -3.166272,1.49951 -5.766634,2.89859 -5.778583,3.10906 -0.01193,0.21047 0.573251,1.0213 1.300434,1.80184 0.727182,0.78054 1.175776,1.56553 0.996877,1.74443 -0.178899,0.17891 0.0244,1.09266 0.451715,2.03058 l 0.77698,1.70529 3.338124,2.54569 c 3.166469,2.41478 4.129008,3.76224 2.687497,3.76224 -0.357838,0 -1.372096,0.72149 -2.253913,1.60331 -0.881817,0.88181 -2.011067,1.73922 -2.509437,1.90535 l -0.906129,0.30204 0.944857,1.52344 0.944858,1.52344 -0.985672,0.61324 -0.985671,0.61324 -1.22952,-0.65803 -1.22952,-0.65802 v 0.70559 0.70557 h -1.479926 -1.479925 l -1.26257,1.14261 -1.262571,1.142605 -0.801811,-0.801805 c -0.440993,-0.44099 -1.484771,-0.80181 -2.31951,-0.80181 H 51.10716 l -0.24376,1.1928 -0.24376,1.192785 z"
       id="path1496"
       sodipodi:nodetypes="ccccccccssscccccccccccccccccccscccccccccccccccccccssscssscssccccccccscccscscccccccsccccccccccccccsscscsscccccccssscccccccccccsscssccccccccsscccssccscccscssccsssscccccccccccccsscccc" />
  </g>
</svg>
