<?xml version="1.0" encoding="UTF-8" standalone="no"?>
<!-- Created with Inkscape (http://www.inkscape.org/) -->

<svg
   width="137.97203mm"
   height="104.31563mm"
   viewBox="0 0 137.97203 104.31563"
   version="1.1"
   id="svg5"
   inkscape:version="1.1.1 (3bf5ae0d25, 2021-09-20)"
   sodipodi:docname="hungary.svg"
   xmlns:inkscape="http://www.inkscape.org/namespaces/inkscape"
   xmlns:sodipodi="http://sodipodi.sourceforge.net/DTD/sodipodi-0.dtd"
   xmlns="http://www.w3.org/2000/svg"
   xmlns:svg="http://www.w3.org/2000/svg">
  <sodipodi:namedview
     id="namedview7"
     pagecolor="#505050"
     bordercolor="#eeeeee"
     borderopacity="1"
     inkscape:pageshadow="0"
     inkscape:pageopacity="0"
     inkscape:pagecheckerboard="true"
     inkscape:document-units="mm"
     showgrid="false"
     inkscape:zoom="2.0762433"
     inkscape:cx="279.59151"
     inkscape:cy="227.81531"
     inkscape:window-width="1920"
     inkscape:window-height="984"
     inkscape:window-x="-9"
     inkscape:window-y="-9"
     inkscape:window-maximized="1"
     inkscape:current-layer="layer1"
     fit-margin-top="0"
     fit-margin-left="0"
     fit-margin-right="0"
     fit-margin-bottom="0" />
  <defs
     id="defs2" />
  <g
     inkscape:label="Layer 1"
     inkscape:groupmode="layer"
     id="layer1"
     transform="translate(-28.22514,-19.038505)">
    <path
       style="fill:#d0d0d0;fill-opacity:1;stroke-width:0.681597"
       d="m 90.406629,108.22379 -3.88196,-2.75389 -0.422,-1.32959 -0.42199,-1.32959 0.53818,-0.85809 c 0.296,-0.47195 0.44988,-1.39486 0.34195,-2.050885 l -0.19623,-1.1928 h 0.79736 0.79737 l -0.36655,-0.95523 -0.36657,-0.95524 1.27192,-0.33261 1.27193,-0.33262 -0.41736,-1.596 -0.41737,-1.596 1.80069,1.17986 1.800672,1.17985 1.89838,-0.009 c 1.04411,-0.005 2.59343,-0.19554 3.44294,-0.42316 l 1.54456,-0.41386 -0.18136,-1.11043 -0.18137,-1.11047 1.874389,-0.21567 c 1.03092,-0.11861 1.8744,-0.46367 1.8744,-0.76679 0,-0.30312 0.92522,-0.73618 2.05604,-0.96234 l 2.05603,-0.4112 0.6825,-1.79511 0.6825,-1.7951 1.25424,0.32799 1.25423,0.32799 1.04303,-0.5837 1.04302,-0.58371 0.80761,0.97312 0.80762,0.97311 0.9848,-0.3779 0.98481,-0.37791 2.03255,0.84191 2.03255,0.84191 v 0.83555 0.83554 l -1.43517,0.6404 -1.43517,0.64039 -1.01481,2.70135 c -0.55814,1.48575 -1.17455,3.54859 -1.3698,4.58409 -0.19525,1.03551 -0.62636,2.050435 -0.95802,2.255415 -0.33165,0.20497 -0.603,1.05441 -0.603,1.88764 v 1.51497 l -2.89679,0.8076 c -1.59324,0.44418 -3.51023,0.89454 -4.25999,1.0008 -0.74975,0.10626 -2.97942,1.19004 -4.95482,2.40839 l -3.591609,2.21519 h -1.86118 -1.86119 z"
       id="path1496"
       sodipodi:nodetypes="ccccssccccccccccccscccssscccccccccccccccccsssscssscccc" />
  </g>
</svg>
