<?xml version="1.0" encoding="UTF-8" standalone="no"?>
<!-- Created with Inkscape (http://www.inkscape.org/) -->

<svg
   width="137.97203mm"
   height="104.31563mm"
   viewBox="0 0 137.97203 104.31563"
   version="1.1"
   id="svg5"
   inkscape:version="1.1.1 (3bf5ae0d25, 2021-09-20)"
   sodipodi:docname="poland.svg"
   xmlns:inkscape="http://www.inkscape.org/namespaces/inkscape"
   xmlns:sodipodi="http://sodipodi.sourceforge.net/DTD/sodipodi-0.dtd"
   xmlns="http://www.w3.org/2000/svg"
   xmlns:svg="http://www.w3.org/2000/svg">
  <sodipodi:namedview
     id="namedview7"
     pagecolor="#505050"
     bordercolor="#eeeeee"
     borderopacity="1"
     inkscape:pageshadow="0"
     inkscape:pageopacity="0"
     inkscape:pagecheckerboard="true"
     inkscape:document-units="mm"
     showgrid="false"
     inkscape:zoom="2.0762433"
     inkscape:cx="270.44037"
     inkscape:cy="168.09206"
     inkscape:window-width="1920"
     inkscape:window-height="984"
     inkscape:window-x="-9"
     inkscape:window-y="-9"
     inkscape:window-maximized="1"
     inkscape:current-layer="layer1"
     fit-margin-top="0"
     fit-margin-left="0"
     fit-margin-right="0"
     fit-margin-bottom="0" />
  <defs
     id="defs2" />
  <g
     inkscape:label="Layer 1"
     inkscape:groupmode="layer"
     id="layer1"
     transform="translate(-28.22514,-19.038505)">
    <path
       style="fill:#d0d0d0;fill-opacity:1;stroke-width:0.681597"
       d="m 130.34844,85.494555 -0.42178,-1.09916 h -0.87655 c -0.4821,0 -1.03335,-0.40859 -1.22498,-0.90796 l -0.34842,-0.90798 -6.02928,-1.60255 c -3.3161,-0.8814 -6.19788,-1.84843 -6.40395,-2.14896 -0.20608,-0.30051 -1.31591,-0.73464 -2.46629,-0.96472 l -2.09161,-0.41832 -0.90561,0.96946 -0.90561,0.96947 -1.60228,-0.3063 -1.60229,-0.3063 -0.83092,1.13636 -0.83093,1.13636 -1.49356,-1.39146 c -1.71324,-1.59613 -2.649689,-1.75643 -3.151429,-0.53947 l -0.35127,0.85199 -1.71763,-1.87439 c -0.9447,-1.03092 -2.11575,-1.88122 -2.60233,-1.88955 l -0.88469,-0.0151 1.61354,-1.24088 1.61355,-1.24087 -0.52076,-1.64076 c -0.28642,-0.90242 -0.39907,-1.69273 -0.25034,-1.75625 0.14873,-0.0635 -0.47317,-0.907 -1.382,-1.87439 l -1.65241,-1.75893 h -1.18725 -1.187242 l -0.90913,-2.08363 -0.90913,-2.08363 -2.15205,0.39868 -2.152041,0.39868 -0.23355,-0.53025 c -0.12845,-0.29162 -1.1537,-1.04603 -2.27834,-1.67645 l -2.044787,-1.14622 -0.598818,-2.05307 -0.598817,-2.05308 0.407029,-1.06069 0.407023,-1.06069 h 1.405979 1.405981 l 0.4344,-1.19279 c 0.23892,-0.65604 1.30281,-2.20031 2.364201,-3.43171 2.23258,-2.59019 2.3495,-3.32436 0.80176,-5.03459 l -1.128041,-1.24647 h 1.128041 1.12804 v -1.32296 c 0,-0.72764 0.30671,-1.51254 0.68159,-1.74422 l 0.6816,-0.42125 v -1.66377 -1.66377 h 0.77078 0.77078 l -0.39881,2.45755 -0.39881,2.45756 1.30945,0.34243 1.309452,0.34242 0.40736,1.28351 c 0.22405,0.70593 0.23633,1.56025 0.0273,1.89849 l -0.38007,0.61498 1.64511,0.4129 c 0.90481,0.2271 2.10854,0.23508 2.67493,0.0177 l 1.02979,-0.39517 2.18923,1.58858 2.189219,1.58857 0.29993,-0.852 c 0.16496,-0.4686 0.75636,-0.852 1.31421,-0.852 0.55785,0 1.47436,-0.46007 2.03668,-1.02239 0.56232,-0.56232 1.53724,-1.03209 2.16651,-1.04394 0.62925,-0.0119 2.04254,-0.8112 3.14062,-1.77634 l 1.99651,-1.75481 -0.74339,-1.96949 -0.74341,-1.96949 0.6072,-0.37527 0.60719,-0.37527 1.37728,0.7371 c 0.7575,0.4054 1.37728,1.03303 1.37728,1.39471 0,1.32688 1.79048,0.60149 3.59701,-1.45726 1.9894,-2.26716 2.04165,-2.4353 1.88463,-6.06428 l -0.10322,-2.38559 1.5003,-0.6816 1.5003,-0.6816 1.1245,-2.92196 c 0.61847,-1.60707 1.30434,-2.74211 1.52415,-2.5223 0.21982,0.21981 1.52659,-0.36509 2.90395,-1.2998 l 2.50428,-1.69945 1.66521,1.44788 1.66521,1.44789 v 1.15682 c 0,0.63625 -0.46007,1.53865 -1.02239,2.00533 l -1.0224,0.84852 v 2.13623 c 0,1.17492 -0.30735,3.20772 -0.68301,4.51732 l -0.683,2.38109 0.44242,4.31941 0.44242,4.31941 2.27878,1.47417 2.27879,1.47417 0.70672,2.11116 0.70671,2.11116 -0.43225,1.12643 -0.43224,1.12642 0.92492,-3.3e-4 0.92492,-3.4e-4 -0.10318,4.67924 -0.10317,4.67925 -2.05574,2.10299 -2.05574,2.10299 0.2081,1.56767 c 0.33054,2.49011 0.96447,5.46467 1.71311,8.03834 0.95867,3.29571 0.92134,3.41249 -1.09086,3.41249 h -1.78349 l 0.34497,1.31918 0.34497,1.31917 -0.94707,0.36342 c -0.52087,0.1999 -0.94706,0.79559 -0.94706,1.32378 0,0.52818 -0.45645,1.33914 -1.01433,1.80215 l -1.01433,0.84182 z"
       id="path1496"
       sodipodi:nodetypes="ccsscssscccccccsscsccccscccccccccsscccccccssscccsscccccccccsccsccccssscscccccsssscccssscccsscsscccccccccccccccsssccccsscc" />
  </g>
</svg>
