<?xml version="1.0" encoding="UTF-8" standalone="no"?>
<!-- Created with Inkscape (http://www.inkscape.org/) -->

<svg
   width="137.97203mm"
   height="104.31563mm"
   viewBox="0 0 137.97203 104.31563"
   version="1.1"
   id="svg5"
   inkscape:version="1.1.1 (3bf5ae0d25, 2021-09-20)"
   sodipodi:docname="romania.svg"
   xmlns:inkscape="http://www.inkscape.org/namespaces/inkscape"
   xmlns:sodipodi="http://sodipodi.sourceforge.net/DTD/sodipodi-0.dtd"
   xmlns="http://www.w3.org/2000/svg"
   xmlns:svg="http://www.w3.org/2000/svg">
  <sodipodi:namedview
     id="namedview7"
     pagecolor="#505050"
     bordercolor="#eeeeee"
     borderopacity="1"
     inkscape:pageshadow="0"
     inkscape:pageopacity="0"
     inkscape:pagecheckerboard="true"
     inkscape:document-units="mm"
     showgrid="false"
     inkscape:zoom="2.0762433"
     inkscape:cx="279.59151"
     inkscape:cy="227.81531"
     inkscape:window-width="1920"
     inkscape:window-height="984"
     inkscape:window-x="-9"
     inkscape:window-y="-9"
     inkscape:window-maximized="1"
     inkscape:current-layer="layer1"
     fit-margin-top="0"
     fit-margin-left="0"
     fit-margin-right="0"
     fit-margin-bottom="0" />
  <defs
     id="defs2" />
  <g
     inkscape:label="Layer 1"
     inkscape:groupmode="layer"
     id="layer1"
     transform="translate(-28.22514,-19.038505)">
    <path
       style="fill:#d0d0d0;fill-opacity:1;stroke-width:0.681597"
       d="m 127.81614,121.9371 0.37056,-1.41703 h -1.01843 c -0.56014,0 -1.40027,-0.46008 -1.86695,-1.0224 l -0.84851,-1.0224 h 0.76506 c 1.31694,0 0.83425,-1.24937 -0.66676,-1.72578 l -1.43181,-0.45443 -0.64807,0.64808 -0.64808,0.64807 -1.61484,-0.30869 -1.61484,-0.3087 -0.76031,-1.83554 -0.76031,-1.83554 -2.02014,-0.76252 -2.02014,-0.76252 v -1.02475 -1.02475 l -1.82752,-1.33126 -1.82753,-1.33125 2.50913,-0.90732 2.50911,-0.90731 v -1.14835 c 0,-0.6316 0.45819,-2.0269 1.0182,-3.10067 0.56001,-1.073755 1.02009,-2.624315 1.0224,-3.445665 0.002,-0.82135 0.31091,-1.68293 0.68579,-1.91462 0.37488,-0.23169 0.6816,-1.02621 0.6816,-1.76561 v -1.34436 l 1.1928,-0.42497 c 0.65603,-0.23373 1.80623,-1.13262 2.55599,-1.99754 l 1.36319,-1.57258 4.08958,-0.17516 4.08959,-0.17517 0.76686,0.47772 0.76687,0.47772 0.43816,-2.74008 0.43815,-2.74009 1.01017,-0.38764 1.01017,-0.38764 v -1.22551 -1.22551 l 2.72639,0.26261 2.72639,0.26261 v -0.66817 -0.66817 h 1.32297 c 0.72763,0 1.49266,-0.27456 1.70005,-0.61013 l 0.37708,-0.61013 2.55994,1.31065 c 1.40796,0.72085 3.65115,1.63973 4.98486,2.04194 l 2.42493,0.73131 1.1871,2.74009 c 1.46634,3.38467 1.87236,3.78759 6.74299,6.69158 l 3.91919,2.33672 v 0.76768 c 0,0.42223 -0.7668,1.34352 -1.704,2.04733 l -1.70399,1.27965 v 1.16119 c 0,0.638645 0.30672,1.350745 0.6816,1.582435 l 0.68159,0.42125 v 2.27244 2.27244 l -0.93933,0.36047 -0.93935,0.36045 -0.70526,-0.70526 -0.70527,-0.70527 -0.62307,0.38508 -0.62307,0.38508 0.55247,4.63344 c 0.30386,2.54839 0.73525,5.4769 0.95864,6.50782 l 0.40617,1.8744 h -1.36055 c -0.74831,0 -1.46279,0.29734 -1.58776,0.66076 l -0.22719,0.66076 -3.40799,-1.07715 c -1.87439,-0.59243 -4.44706,-1.38498 -5.71702,-1.76122 l -2.30904,-0.68406 -2.22732,2.43126 -2.22732,2.43125 -2.44425,-0.39665 -2.44425,-0.39665 -0.96557,0.80135 -0.96556,0.80135 -2.95939,-0.14118 c -1.62766,-0.0777 -3.47377,0.0858 -4.10245,0.36312 l -1.14306,0.50432 z"
       id="path1496"
       sodipodi:nodetypes="ccsscsscccccccccccccccsscsscsscccccccccccccccsscsscsscsscsscccccccccsscsscssccccccccccc" />
  </g>
</svg>
